<?xml version="1.0" standalone="no"?>
<!DOCTYPE svg PUBLIC "-//W3C//DTD SVG 20010904//EN"
 "http://www.w3.org/TR/2001/REC-SVG-20010904/DTD/svg10.dtd">
<svg version="1.0" xmlns="http://www.w3.org/2000/svg"
 width="3601.000000pt" height="3601.000000pt" viewBox="0 0 3601.000000 3601.000000"
 preserveAspectRatio="xMidYMid meet">
<metadata>
Created by potrace 1.14, written by Peter Selinger 2001-2017
</metadata>
<g transform="translate(0.000000,3601.000000) scale(0.100000,-0.100000)"
fill="#000000" stroke="none">
<path d="M12653 26116 l-2843 -1641 0 -6466 c0 -5161 3 -6469 13 -6476 29 -24
5668 -3275 5673 -3271 2 3 3 4390 2 9750 l-3 9745 -2842 -1641z"/>
<path d="M19203 26117 l-2843 -1642 0 -2373 c0 -2023 2 -2373 14 -2370 8 2
1288 739 2845 1638 l2831 1634 0 2378 c0 1308 -1 2378 -2 2377 -2 0 -1282
-739 -2845 -1642z"/>
<path d="M24543 25417 l-1633 -942 0 -6466 c0 -5161 3 -6469 13 -6477 17 -13
3255 -1882 3262 -1882 3 0 5 3760 5 8355 0 4595 -3 8355 -7 8355 -5 0 -743
-424 -1640 -943z"/>
<path d="M19200 20520 l-2835 -1638 -2 -3328 c-2 -1831 1 -3334 5 -3339 7 -11
5632 -3258 5665 -3271 16 -6 17 313 17 6605 0 3636 -3 6611 -7 6610 -5 0
-1284 -738 -2843 -1639z"/>
</g>
</svg>
